<?xml version="1.0" encoding="UTF-8" standalone="no"?>
<svg
   xmlns:dc="http://purl.org/dc/elements/1.1/"
   xmlns:cc="http://creativecommons.org/ns#"
   xmlns:rdf="http://www.w3.org/1999/02/22-rdf-syntax-ns#"
   xmlns:svg="http://www.w3.org/2000/svg"
   xmlns="http://www.w3.org/2000/svg"
   xmlns:sodipodi="http://sodipodi.sourceforge.net/DTD/sodipodi-0.dtd"
   xmlns:inkscape="http://www.inkscape.org/namespaces/inkscape"
   enable-background="new 0 0 1920 1000"
   viewBox="0 0 1920 1000"
   version="1.1"
   id="svg19"
   sodipodi:docname="hero-area.svg"
   inkscape:version="1.0 (4035a4fb49, 2020-05-01)">
  <metadata
     id="metadata25">
    <rdf:RDF>
      <cc:Work
         rdf:about="">
        <dc:format>image/svg+xml</dc:format>
        <dc:type
           rdf:resource="http://purl.org/dc/dcmitype/StillImage" />
        <dc:title />
      </cc:Work>
    </rdf:RDF>
  </metadata>
  <defs
     id="defs23">
    <linearGradient
       y2="895.38348"
       y1="895.38348"
       x2="2035.2726"
       x1="87.286102"
       gradientUnits="userSpaceOnUse"
       id="linearGradient890">
      <stop
         id="stop10-6"
         stop-color="#ff4c8e"
         offset="0" />
      <stop
         id="stop12-3"
         stop-color="#ffab7f"
         offset="1" />
    </linearGradient>
    <clipPath
       id="a-4">
      <path
         id="path2-5"
         d="m -82.2,543.8 h 2002.3 v 472.9 H -82.2 Z" />
    </clipPath>
    <linearGradient
       y2="775.59473"
       y1="775.59473"
       x2="1963.2894"
       x1="570.2373"
       gradientUnits="userSpaceOnUse"
       id="linearGradient896">
      <stop
         id="stop5-2"
         stop-color="#f02b81"
         offset="0" />
      <stop
         id="stop7-9"
         stop-color="#f08a5b"
         offset="1" />
    </linearGradient>
    <clipPath
       id="clipPath868">
      <path
         id="path866"
         d="m -82.2,543.8 h 2002.3 v 472.9 H -82.2 Z" />
    </clipPath>
    <clipPath
       id="a-6">
      <path
         id="path2-50"
         d="m -82.2,543.8 h 2002.3 v 472.9 H -82.2 Z" />
    </clipPath>
    <clipPath
       id="clipPath45">
      <path
         id="path43"
         d="m -82.2,543.8 h 2002.3 v 472.9 H -82.2 Z" />
    </clipPath>
  </defs>
  <sodipodi:namedview
     inkscape:showpageshadow="false"
     inkscape:document-rotation="0"
     pagecolor="#ffffff"
     bordercolor="#666666"
     borderopacity="1"
     objecttolerance="10"
     gridtolerance="10"
     guidetolerance="10"
     inkscape:pageopacity="0"
     inkscape:pageshadow="2"
     inkscape:window-width="1366"
     inkscape:window-height="705"
     id="namedview21"
     showgrid="false"
     inkscape:zoom="0.236"
     inkscape:cx="384.27883"
     inkscape:cy="567.27672"
     inkscape:window-x="-8"
     inkscape:window-y="-8"
     inkscape:window-maximized="1"
     inkscape:current-layer="svg19" />
  <clipPath
     id="a">
    <path
       d="m-82.2 543.8h2002.3v472.9h-2002.3z"
       id="path2" />
  </clipPath>
  <linearGradient
     id="b"
     gradientUnits="userSpaceOnUse"
     x1="570.2373"
     x2="1963.2894"
     y1="775.5947"
     y2="775.5947">
    <stop
       offset="0"
       stop-color="#f02b81"
       id="stop5" />
    <stop
       offset="1"
       stop-color="#f08a5b"
       id="stop7" />
  </linearGradient>
  <linearGradient
     id="c"
     gradientUnits="userSpaceOnUse"
     x1="87.2861"
     x2="2035.2726"
     y1="895.3835"
     y2="895.3835">
    <stop
       offset="0"
       stop-color="#ff4c8e"
       id="stop10" />
    <stop
       offset="1"
       stop-color="#ffab7f"
       id="stop12" />
  </linearGradient>
  <g
     id="g912">
    <path
       id="path15"
       fill="url(#b)"
       d="m 570.2,870.9 c 129.2,-102.3 299.6,-137 464.1,-145.7 164.6,-8.7 330.3,5.4 494,-13.8 126.6,-14.8 250.8,-49.6 366.6,-102.6 16.8,-7.7 37.2,-15.6 52.8,-5.6 17,10.9 16.7,35.5 14.3,55.6 -8,68.4 -19.7,144 -73.3,187.2 -32.6,26.2 -75.2,35.6 -116.3,43.5 C 1488,943.9 1197,963.4 907.8,947.4 791.7,940.8 672,927.5 570.2,870.9 Z"
       clip-path="url(#a)"
       style="fill:url(#b)" />
    <path
       id="path17"
       fill="url(#c)"
       d="m 1245.5,845.7 c 212.2,-21.9 411.9,-126 625.1,-129.2 37.4,-0.6 77.2,2.8 107.4,25 48.3,35.5 54.7,103.9 56.8,163.8 1.5,42.5 1.2,90 -28.1,120.9 -28.6,30.1 -74.7,33.6 -116.2,34.3 -309.3,5.4 -618.3,-33.3 -927.5,-24.6 -287.6,8.1 -599.8,81.8 -875.7,0.4 C 162,924.8 310.5,835.6 443,813.5 c 132.5,-22.1 268,-7.2 401.2,9.9 133.2,17 267.7,36.1 401.3,22.3 z"
       clip-path="url(#a)"
       style="fill:url(#c)" />
  </g>
</svg>
